<svg xmlns="http://www.w3.org/2000/svg" width="16.5" height="16.587" viewBox="0 0 16.5 16.587">
  <g id="assign" transform="translate(0.25 0.294)">
    <path id="Path_16" data-name="Path 16" d="M39.6,1.473a.469.469,0,0,0-.137-.331l-1-1A.469.469,0,0,0,37.794.8L38,1.006A6,6,0,0,0,32.134,7a.469.469,0,0,0,.938,0A5.06,5.06,0,0,1,38,1.943l-.2.2a.469.469,0,0,0,.663.663l1-1a.469.469,0,0,0,.137-.331Z" transform="translate(-31.13)" fill="#707070" stroke="#707070" stroke-width="0.5"/>
    <path id="Path_17" data-name="Path 17" d="M248.03,273.133a.469.469,0,0,0-.469.469,5.06,5.06,0,0,1-4.925,5.053l.2-.2a.469.469,0,0,0-.663-.663l-1,1a.471.471,0,0,0,0,.663l1,1a.469.469,0,1,0,.663-.663l-.206-.206a6,6,0,0,0,5.866-5.99A.469.469,0,0,0,248.03,273.133Z" transform="translate(-233.503 -264.598)" fill="#707070" stroke="#707070" stroke-width="0.5"/>
    <path id="Path_18" data-name="Path 18" d="M325.715,3.364a1.974,1.974,0,1,0-2.8,0,2.982,2.982,0,0,0-1.577,2.628V7a.469.469,0,0,0,.469.469h5.021A.469.469,0,0,0,327.291,7v-1A2.982,2.982,0,0,0,325.715,3.364Zm-1.4-2.426a1.037,1.037,0,1,1-1.037,1.037A1.039,1.039,0,0,1,324.312.937Zm2.042,5.59H322.27V5.991a2.042,2.042,0,0,1,4.083,0Z" transform="translate(-311.291)" fill="#707070" stroke="#707070" stroke-width="0.5"/>
    <path id="Path_19" data-name="Path 19" d="M4.382,276.5a1.974,1.974,0,1,0-2.8,0A2.982,2.982,0,0,0,0,279.125v1a.469.469,0,0,0,.469.469H5.49a.469.469,0,0,0,.469-.469v-1A2.982,2.982,0,0,0,4.382,276.5Zm-1.4-2.426a1.037,1.037,0,1,1-1.037,1.038A1.039,1.039,0,0,1,2.979,274.07Zm2.042,5.59H.937v-.535a2.042,2.042,0,0,1,4.083,0Z" transform="translate(0 -264.597)" fill="#707070" stroke="#707070" stroke-width="0.5"/>
  </g>
</svg>
