<svg xmlns="http://www.w3.org/2000/svg" width="24.5" height="24.616" viewBox="0 0 24.5 24.616">
  <g id="change" transform="translate(0.25 0.308)">
    <g id="Group_126" data-name="Group 126" transform="translate(0 0)">
      <path id="Path_16" data-name="Path 16" d="M43.331,2.209a.7.7,0,0,0-.206-.5L41.619.206a.7.7,0,0,0-.994.994l.308.308a9,9,0,0,0-8.8,8.985.7.7,0,0,0,1.406,0,7.59,7.59,0,0,1,7.388-7.579l-.3.3a.7.7,0,0,0,.994.994l1.506-1.506a.7.7,0,0,0,.206-.5Z" transform="translate(-30.628 0)" fill="#192029" stroke="#192029" stroke-width="0.5"/>
      <path id="Path_17" data-name="Path 17" d="M251.527,273.133a.7.7,0,0,0-.7.7,7.59,7.59,0,0,1-7.388,7.579l.3-.3a.7.7,0,0,0-.994-.994l-1.506,1.506a.707.707,0,0,0,0,.994l1.506,1.506a.7.7,0,0,0,.994-.994l-.308-.308a9,9,0,0,0,8.8-8.985A.7.7,0,0,0,251.527,273.133Z" transform="translate(-229.737 -260.33)" fill="#192029" stroke="#192029" stroke-width="0.5"/>
      <path id="Path_18" data-name="Path 18" d="M327.905,5.046a2.961,2.961,0,1,0-4.207,0,4.473,4.473,0,0,0-2.365,3.942v1.506a.7.7,0,0,0,.7.7h7.531a.7.7,0,0,0,.7-.7V8.987A4.473,4.473,0,0,0,327.905,5.046Zm-2.1-3.64a1.556,1.556,0,1,1-1.556,1.556A1.558,1.558,0,0,1,325.8,1.406Zm3.063,8.384h-6.125v-.8a3.063,3.063,0,0,1,6.125,0Z" transform="translate(-306.27 0)" fill="#192029" stroke="#192029" stroke-width="0.5"/>
      <path id="Path_19" data-name="Path 19" d="M6.572,278.179a2.961,2.961,0,1,0-4.207,0A4.473,4.473,0,0,0,0,282.12v1.506a.7.7,0,0,0,.7.7H8.234a.7.7,0,0,0,.7-.7V282.12a4.473,4.473,0,0,0-2.365-3.942Zm-2.1-3.64A1.556,1.556,0,1,1,2.913,276.1,1.558,1.558,0,0,1,4.469,274.539Zm3.063,8.384H1.406v-.8a3.063,3.063,0,0,1,6.125,0Z" transform="translate(0 -260.33)" fill="#192029" stroke="#192029" stroke-width="0.5"/>
    </g>
  </g>
</svg>
