<svg xmlns="http://www.w3.org/2000/svg" width="24" height="24" viewBox="0 0 24 24">
  <g id="close" transform="translate(0 0)">
    <path id="Path_54" data-name="Path 54" d="M21.332,20.027l-3.04-3.04,3.04-3.04a.922.922,0,0,0-1.3-1.3l-3.04,3.04-3.04-3.04a.922.922,0,0,0-1.3,1.3l3.04,3.04-3.04,3.04a.891.891,0,0,0,0,1.3.916.916,0,0,0,1.3,0l3.04-3.04,3.04,3.04a.926.926,0,0,0,1.3,0A.916.916,0,0,0,21.332,20.027Z" transform="translate(-4.988 -4.987)" fill="#192029"/>
    <path id="Path_55" data-name="Path 55" d="M15.375,4.99a10.381,10.381,0,1,1-7.344,3.04,10.316,10.316,0,0,1,7.344-3.04m0-1.615a12,12,0,1,0,12,12,12,12,0,0,0-12-12Z" transform="translate(-3.375 -3.375)" fill="#192029"/>
  </g>
</svg>
