<svg version="1.1" id="Layer_1" xmlns="http://www.w3.org/2000/svg" xmlns:xlink="http://www.w3.org/1999/xlink" x="0px" y="0px"
	 width="100%" viewBox="0 0 512 512" enable-background="new 0 0 512 512" xml:space="preserve">
<path fill="#FFFFFF" opacity="1.000000" stroke="none" 
	d="
M513.000000,271.000000 
	C513.000000,351.589905 513.000000,432.179810 513.000000,513.000000 
	C440.645935,513.000000 368.291626,513.000000 295.610168,512.610352 
	C297.223175,511.960480 299.199005,511.854492 301.097839,511.415558 
	C317.365021,507.655426 331.059479,499.606293 342.355103,487.222443 
	C355.317169,473.011536 362.607819,456.535156 362.946503,437.266632 
	C363.212921,422.107971 363.016541,406.940857 362.975830,391.777588 
	C362.971497,390.164825 362.840576,388.495453 362.414001,386.950165 
	C359.921753,377.922333 352.648438,372.134399 340.398834,372.927094 
	C331.406860,373.509003 323.193054,381.439819 322.999268,390.471802 
	C322.668579,405.884735 322.734009,421.322388 321.782379,436.696991 
	C321.449799,442.070312 319.363007,447.696594 316.769379,452.501343 
	C308.637756,467.565277 294.614258,472.864441 278.521179,472.915863 
	C214.535812,473.120300 150.549240,473.066040 86.563728,472.884430 
	C80.973091,472.868561 75.102592,472.036133 69.849876,470.192932 
	C50.675480,463.464508 42.125935,449.062469 42.135674,429.048309 
	C42.192806,311.657593 42.609524,194.266785 43.195827,76.877457 
	C43.220917,71.854607 45.334053,66.418175 47.811790,61.909290 
	C55.975288,47.053726 69.732285,41.081264 85.891708,41.102673 
	C152.793655,41.191299 219.696121,41.545399 286.595703,42.116371 
	C298.081451,42.214397 306.850891,48.375443 314.119598,57.236538 
	C321.202393,65.870995 322.562042,75.989273 322.907288,86.367691 
	C323.305969,98.351807 323.212128,110.364288 322.933838,122.355209 
	C322.705505,132.194260 331.734283,140.918152 342.224609,141.230026 
	C354.706512,141.601120 363.226471,131.806992 363.071381,122.392982 
	C362.810669,106.567406 363.069000,90.733887 362.949219,74.904915 
	C362.920929,71.163956 362.752777,67.297653 361.808960,63.709995 
	C354.192993,34.760479 336.876587,14.477157 308.172211,4.659608 
	C303.867798,3.187395 299.394928,2.207595 295.000000,1.000000 
	C367.597809,1.000000 440.195587,1.000000 513.000000,1.000000 
	C513.000000,82.020775 513.000000,163.041733 512.625732,244.408646 
	C510.993500,236.433411 506.776428,229.533707 501.085632,223.707855 
	C486.420380,208.694565 471.406403,194.022598 456.652740,179.094635 
	C451.786469,174.170868 446.350464,171.893997 439.246826,171.834976 
	C427.315338,171.735840 416.345642,185.044250 420.968170,197.341232 
	C422.291443,200.861481 424.246674,204.452332 426.821686,207.139160 
	C436.645142,217.389297 446.839874,227.283569 457.587189,238.000000 
	C454.838470,238.000000 453.217499,238.000000 451.596527,238.000000 
	C373.637543,238.000000 295.678101,238.122635 217.720016,237.860260 
	C206.744156,237.823334 198.101318,246.980560 197.764542,257.137329 
	C197.349945,269.641479 207.251923,278.157654 217.509384,278.127136 
	C295.467682,277.894897 373.427002,278.000000 451.385986,278.000000 
	C453.132507,278.000000 454.879028,278.000000 457.463776,278.000000 
	C446.681427,288.791382 436.837402,299.133728 426.445282,308.892365 
	C417.842224,316.971008 418.472321,330.861115 425.539917,338.218750 
	C432.920074,345.901855 448.052856,346.092010 455.862854,337.821381 
	C467.752136,325.230804 480.096954,313.054169 492.575592,301.041779 
	C501.545929,292.406555 509.567413,283.313080 513.000000,271.000000 
z"/>
<path fill="#000000" opacity="1.000000" stroke="none" 
	d="
M294.531342,1.000000 
	C299.394928,2.207595 303.867798,3.187395 308.172211,4.659608 
	C336.876587,14.477157 354.192993,34.760479 361.808960,63.709995 
	C362.752777,67.297653 362.920929,71.163956 362.949219,74.904915 
	C363.069000,90.733887 362.810669,106.567406 363.071381,122.392982 
	C363.226471,131.806992 354.706512,141.601120 342.224609,141.230026 
	C331.734283,140.918152 322.705505,132.194260 322.933838,122.355209 
	C323.212128,110.364288 323.305969,98.351807 322.907288,86.367691 
	C322.562042,75.989273 321.202393,65.870995 314.119598,57.236538 
	C306.850891,48.375443 298.081451,42.214397 286.595703,42.116371 
	C219.696121,41.545399 152.793655,41.191299 85.891708,41.102673 
	C69.732285,41.081264 55.975288,47.053726 47.811790,61.909290 
	C45.334053,66.418175 43.220917,71.854607 43.195827,76.877457 
	C42.609524,194.266785 42.192806,311.657593 42.135674,429.048309 
	C42.125935,449.062469 50.675480,463.464508 69.849876,470.192932 
	C75.102592,472.036133 80.973091,472.868561 86.563728,472.884430 
	C150.549240,473.066040 214.535812,473.120300 278.521179,472.915863 
	C294.614258,472.864441 308.637756,467.565277 316.769379,452.501343 
	C319.363007,447.696594 321.449799,442.070312 321.782379,436.696991 
	C322.734009,421.322388 322.668579,405.884735 322.999268,390.471802 
	C323.193054,381.439819 331.406860,373.509003 340.398834,372.927094 
	C352.648438,372.134399 359.921753,377.922333 362.414001,386.950165 
	C362.840576,388.495453 362.971497,390.164825 362.975830,391.777588 
	C363.016541,406.940857 363.212921,422.107971 362.946503,437.266632 
	C362.607819,456.535156 355.317169,473.011536 342.355103,487.222443 
	C331.059479,499.606293 317.365021,507.655426 301.097839,511.415558 
	C299.199005,511.854492 297.223175,511.960480 295.141541,512.610352 
	C220.312439,513.000000 145.624878,513.000000 70.327141,512.610352 
	C67.776649,511.960358 65.804214,511.843384 63.901039,511.417145 
	C46.855907,507.599701 32.752403,498.856598 21.277124,485.773132 
	C9.597477,472.456757 2.184040,456.995087 2.144013,439.276855 
	C1.869622,317.816223 1.990037,196.354630 2.046921,74.893372 
	C2.048671,71.155525 2.251658,67.288353 3.195031,63.700840 
	C10.807688,34.750961 28.128489,14.475371 56.828934,4.658786 
	C61.132919,3.186668 65.605438,2.207307 70.000000,1.000000 
	C144.687561,1.000000 219.375122,1.000000 294.531342,1.000000 
z"/>
<path fill="#000000" opacity="1.000000" stroke="none" 
	d="
M513.000000,270.531342 
	C509.567413,283.313080 501.545929,292.406555 492.575592,301.041779 
	C480.096954,313.054169 467.752136,325.230804 455.862854,337.821381 
	C448.052856,346.092010 432.920074,345.901855 425.539917,338.218750 
	C418.472321,330.861115 417.842224,316.971008 426.445282,308.892365 
	C436.837402,299.133728 446.681427,288.791382 457.463776,278.000000 
	C454.879028,278.000000 453.132507,278.000000 451.385986,278.000000 
	C373.427002,278.000000 295.467682,277.894897 217.509384,278.127136 
	C207.251923,278.157654 197.349945,269.641479 197.764542,257.137329 
	C198.101318,246.980560 206.744156,237.823334 217.720016,237.860260 
	C295.678101,238.122635 373.637543,238.000000 451.596527,238.000000 
	C453.217499,238.000000 454.838470,238.000000 457.587189,238.000000 
	C446.839874,227.283569 436.645142,217.389297 426.821686,207.139160 
	C424.246674,204.452332 422.291443,200.861481 420.968170,197.341232 
	C416.345642,185.044250 427.315338,171.735840 439.246826,171.834976 
	C446.350464,171.893997 451.786469,174.170868 456.652740,179.094635 
	C471.406403,194.022598 486.420380,208.694565 501.085632,223.707855 
	C506.776428,229.533707 510.993500,236.433411 512.625732,244.877304 
	C513.000000,253.354233 513.000000,261.708466 513.000000,270.531342 
z"/>
<path fill="#FFFFFF" opacity="1.000000" stroke="none" 
	d="
M69.531342,1.000000 
	C65.605438,2.207307 61.132919,3.186668 56.828934,4.658786 
	C28.128489,14.475371 10.807688,34.750961 3.195031,63.700840 
	C2.251658,67.288353 2.048671,71.155525 2.046921,74.893372 
	C1.990037,196.354630 1.869622,317.816223 2.144013,439.276855 
	C2.184040,456.995087 9.597477,472.456757 21.277124,485.773132 
	C32.752403,498.856598 46.855907,507.599701 63.901039,511.417145 
	C65.804214,511.843384 67.776649,511.960358 69.858482,512.610352 
	C47.015488,513.000000 24.030977,513.000000 1.050335,513.000000 
	C1.054205,342.333313 1.054205,171.666656 1.054205,1.000000 
	C23.759834,1.000000 46.411259,1.000000 69.531342,1.000000 
z"/>
</svg>