<svg xmlns="http://www.w3.org/2000/svg" width="17" height="17" viewBox="0 0 17 17">
  <g id="icon-fax" transform="translate(0.5 0.5)">
    <path id="Path_138" data-name="Path 138" d="M29.441,173.08H27.562a.393.393,0,0,1,0-.777h1.879a.688.688,0,0,0,.627-.734v-6.736a.688.688,0,0,0-.627-.734H16.021a.688.688,0,0,0-.627.734v6.736a.688.688,0,0,0,.627.734H17.9a.393.393,0,0,1,0,.777H16.021a1.415,1.415,0,0,1-1.29-1.511v-6.736a1.415,1.415,0,0,1,1.29-1.511h13.42a1.415,1.415,0,0,1,1.29,1.511v6.736a1.415,1.415,0,0,1-1.29,1.511Z" transform="translate(-14.731 -158.921)" fill="none" stroke="#f56e6e" stroke-width="1"/>
    <path id="Path_139" data-name="Path 139" d="M100.633,55.178a.363.363,0,0,1-.332-.388V51.511A1.415,1.415,0,0,1,101.591,50h6.595a.393.393,0,0,1,0,.777h-6.595a.688.688,0,0,0-.627.734v3.278A.363.363,0,0,1,100.633,55.178Z" transform="translate(-97.464 -50)" fill="none" stroke="#f56e6e" stroke-width="1"/>
    <path id="Path_140" data-name="Path 140" d="M392.031,116.307a.363.363,0,0,1-.332-.388v-1.931a.336.336,0,1,1,.663,0v1.931A.363.363,0,0,1,392.031,116.307Z" transform="translate(-379.199 -111.129)" fill="none" stroke="#f56e6e" stroke-width="1"/>
    <path id="Path_141" data-name="Path 141" d="M109.337,308.293h-7.745a1.415,1.415,0,0,1-1.29-1.511v-4.311a.336.336,0,1,1,.663,0v4.311a.688.688,0,0,0,.627.734h7.745a.688.688,0,0,0,.627-.734v-4.311a.336.336,0,1,1,.663,0v4.311A1.415,1.415,0,0,1,109.337,308.293Z" transform="translate(-97.464 -292.293)" fill="none" stroke="#f56e6e" stroke-width="1"/>
    <path id="Path_142" data-name="Path 142" d="M330.541,53.247H329.2a1.205,1.205,0,0,1-1.1-1.286V50.388a.336.336,0,1,1,.663,0V51.96a.478.478,0,0,0,.435.51h1.342a.393.393,0,0,1,0,.777Z" transform="translate(-317.711 -50)" fill="none" stroke="#f56e6e" stroke-width="1"/>
    <path id="Path_143" data-name="Path 143" d="M330.54,53.246a.308.308,0,0,1-.234-.114l-2.109-2.47a.437.437,0,0,1,0-.549.3.3,0,0,1,.469,0l2.109,2.47a.438.438,0,0,1,.072.423.336.336,0,0,1-.306.24Z" transform="translate(-317.709 -50)" fill="none" stroke="#f56e6e" stroke-width="1"/>
    <path id="Path_144" data-name="Path 144" d="M85.463,302.86H74.037a.393.393,0,0,1,0-.777H85.463a.393.393,0,0,1,0,.777Z" transform="translate(-71.75 -292.293)" fill="none" stroke="#f56e6e" stroke-width="1"/>
  </g>
</svg>
