<svg xmlns="http://www.w3.org/2000/svg" width="18" height="18" viewBox="0 0 18 18">
  <g id="icon-unknown" transform="translate(1 1)">
    <path id="Path_1" data-name="Path 1" d="M19,11a8,8,0,1,1-8-8A8,8,0,0,1,19,11Z" transform="translate(-3 -3)" fill="none" stroke="#a4a4a4" stroke-linecap="round" stroke-linejoin="round" stroke-width="2"/>
    <path id="Path_120" data-name="Path 120" d="M.7-5.432v-.146a2.85,2.85,0,0,1,.651-2.03A2.485,2.485,0,0,1,3.25-8.3a2.613,2.613,0,0,1,1.827.616A2.1,2.1,0,0,1,5.754-6.05,2.09,2.09,0,0,1,5.5-5.013a4.371,4.371,0,0,1-.9,1.037,5.135,5.135,0,0,0-.685.716.957.957,0,0,0-.142.54v.66H2.484v-.748a1.75,1.75,0,0,1,.109-.622,1.784,1.784,0,0,1,.283-.5,3.749,3.749,0,0,1,.386-.406q.212-.193.424-.377a4.768,4.768,0,0,0,.386-.374,1.588,1.588,0,0,0,.284-.438,1.284,1.284,0,0,0,.109-.523,1.009,1.009,0,0,0-.348-.8,1.358,1.358,0,0,0-.92-.3,1.575,1.575,0,0,0-.59.1,1.015,1.015,0,0,0-.381.247,1.017,1.017,0,0,0-.207.376,1.99,1.99,0,0,0-.091.415q-.018.185-.018.438v.147Z" transform="translate(4.771 11.648)" fill="#a4a4a4" stroke="#a4a4a4" stroke-linecap="round" stroke-linejoin="round" stroke-width="0.4"/>
    <circle id="Ellipse_54" data-name="Ellipse 54" cx="1" cy="1" r="1" transform="translate(7 10.648)" fill="#a4a4a4"/>
  </g>
</svg>
