<svg xmlns="http://www.w3.org/2000/svg" width="17.004" height="17.004" viewBox="0 0 17.004 17.004">
  <path id="icon_duplicate" d="M18505.664,21771a2.734,2.734,0,0,1-2.666-2.787v-5.562a2.732,2.732,0,0,1,2.666-2.785h2.672v-2.082A2.726,2.726,0,0,1,18511,21755h5.334a2.73,2.73,0,0,1,2.666,2.787v5.563a2.728,2.728,0,0,1-2.666,2.781h-2.668v2.086A2.732,2.732,0,0,1,18511,21771Zm-1.328-8.35v5.563a1.362,1.362,0,0,0,1.328,1.395H18511a1.367,1.367,0,0,0,1.334-1.395v-2.086H18511a2.725,2.725,0,0,1-2.666-2.781v-2.088h-2.672A1.362,1.362,0,0,0,18504.336,21762.652Zm5.334-4.867v5.563a1.366,1.366,0,0,0,1.332,1.393h5.334a1.366,1.366,0,0,0,1.332-1.393v-5.562a1.361,1.361,0,0,0-1.332-1.393H18511A1.361,1.361,0,0,0,18509.67,21757.785Z" transform="translate(-18502.498 -21754.498)" fill="#707070" stroke="#707070" stroke-width="1"/>
</svg>
