<svg id="icon-add" xmlns="http://www.w3.org/2000/svg" width="24" height="24" viewBox="0 0 24 24">
  <path id="Path_49" data-name="Path 49" d="M21.877,15.733h-4.3v-4.3a.923.923,0,1,0-1.846,0v4.3h-4.3a.884.884,0,0,0-.923.923.894.894,0,0,0,.923.923h4.3v4.3a.894.894,0,0,0,.923.923.918.918,0,0,0,.923-.923v-4.3h4.3a.923.923,0,1,0,0-1.846Z" transform="translate(-4.656 -4.656)" fill="#192029"/>
  <path id="Path_50" data-name="Path 50" d="M15.375,4.99a10.381,10.381,0,1,1-7.344,3.04,10.316,10.316,0,0,1,7.344-3.04m0-1.615a12,12,0,1,0,12,12,12,12,0,0,0-12-12Z" transform="translate(-3.375 -3.375)" fill="#192029"/>
</svg>
