<svg width="24" height="24" viewBox="0 0 24 24" fill="none" xmlns="http://www.w3.org/2000/svg">
<g clip-path="url(#clip0_5681_916)">
<path d="M6.12832 0.244873H1.10694C0.873785 0.250018 0.652171 0.347328 0.490607 0.515501C0.329043 0.683675 0.240692 0.909011 0.244894 1.14218V4.18479C0.240692 4.41796 0.329043 4.6433 0.490607 4.81147C0.652171 4.97964 0.873785 5.07695 1.10694 5.0821H1.17942V5.70218C1.17852 5.74836 1.18671 5.79428 1.20355 5.83729C1.22039 5.88031 1.24554 5.91958 1.27756 5.95288C1.30958 5.98617 1.34785 6.01283 1.39017 6.03133C1.4325 6.04984 1.47806 6.05982 1.52424 6.06071C1.57043 6.05982 1.61598 6.04984 1.65831 6.03133C1.70064 6.01283 1.7389 5.98617 1.77092 5.95288C1.80294 5.91958 1.82809 5.88031 1.84493 5.83729C1.86177 5.79428 1.86997 5.74836 1.86906 5.70218V5.08602H5.36718V9.54316H1.86808V7.14022C1.86899 7.09403 1.86079 7.04812 1.84395 7.00511C1.82711 6.96209 1.80196 6.92282 1.76994 6.88952C1.73792 6.85623 1.69966 6.82957 1.65733 6.81107C1.615 6.79256 1.56945 6.78258 1.52326 6.78169C1.47708 6.78258 1.43152 6.79256 1.38919 6.81107C1.34687 6.82957 1.3086 6.85623 1.27658 6.88952C1.24456 6.92282 1.21941 6.96209 1.20257 7.00511C1.18573 7.04812 1.17754 7.09403 1.17845 7.14022V21.215C1.1661 21.8748 1.41578 22.5127 1.87278 22.9888C2.32979 23.4649 2.95687 23.7404 3.61665 23.7551C4.27643 23.7404 4.90351 23.4649 5.36052 22.9888C5.81752 22.5127 6.0672 21.8748 6.05485 21.215V5.08602H6.12734C6.36049 5.08087 6.58211 4.98356 6.74367 4.81539C6.90524 4.64721 6.99359 4.42188 6.98938 4.18871V1.14218C6.99359 0.909011 6.90524 0.683675 6.74367 0.515501C6.58211 0.347328 6.36147 0.250018 6.12832 0.244873ZM5.36718 10.2583V18.6299H1.86808V10.2583H5.36718ZM3.61763 23.037C3.14414 23.0265 2.69414 22.8287 2.3662 22.487C2.03827 22.1453 1.85915 21.6875 1.86808 21.214V19.3528H5.36718V21.214C5.37611 21.6875 5.19699 22.1453 4.86906 22.487C4.54112 22.8287 4.09112 23.0265 3.61763 23.037ZM4.05355 0.961935H4.84898V4.36798H4.05355V0.961935ZM3.36783 4.36798H2.57436V0.962914H3.36783V4.36798ZM0.930609 4.18479V1.14218C0.930088 1.11902 0.934136 1.09599 0.942519 1.0744C0.950903 1.0528 0.963459 1.03308 0.97947 1.01634C0.99548 0.999599 1.01463 0.986179 1.03583 0.976845C1.05703 0.96751 1.07986 0.962444 1.10302 0.961935H1.87885V4.36798H1.10694C1.08319 4.36799 1.05969 4.36322 1.03784 4.35393C1.01598 4.34464 0.996231 4.33104 0.979765 4.31393C0.963299 4.29682 0.950457 4.27657 0.94201 4.25438C0.933563 4.23219 0.929685 4.20852 0.930609 4.18479ZM6.29877 4.18479C6.29929 4.20795 6.29524 4.23098 6.28686 4.25257C6.27848 4.27417 6.26592 4.2939 6.24991 4.31063C6.2339 4.32737 6.21475 4.34079 6.19355 4.35013C6.17235 4.35946 6.14952 4.36453 6.12636 4.36504H5.53469V0.962914H6.12245C6.1456 0.963423 6.16843 0.968489 6.18963 0.977824C6.21083 0.987158 6.22998 1.00058 6.24599 1.01732C6.262 1.03406 6.27456 1.05378 6.28294 1.07538C6.29133 1.09697 6.29537 1.12 6.29485 1.14316L6.29877 4.18479Z" fill="#707070" stroke="#707070" stroke-width="0.5"/>
<path d="M14.5106 0.244873H9.48925C9.2561 0.250018 9.03449 0.347328 8.87292 0.515501C8.71136 0.683675 8.62302 0.909011 8.62722 1.14218V4.18479C8.62302 4.41796 8.71136 4.6433 8.87292 4.81147C9.03449 4.97964 9.2561 5.07695 9.48925 5.0821H9.56174V21.215C9.54858 21.5434 9.60189 21.8711 9.71848 22.1784C9.83508 22.4857 10.0126 22.7663 10.2403 23.0033C10.468 23.2403 10.7412 23.4289 11.0436 23.5577C11.346 23.6865 11.6713 23.7529 11.9999 23.7529C12.3286 23.7529 12.6539 23.6865 12.9563 23.5577C13.2587 23.4289 13.5319 23.2403 13.7596 23.0033C13.9873 22.7663 14.1648 22.4857 14.2814 22.1784C14.398 21.8711 14.4513 21.5434 14.4381 21.215V14.4137C14.4433 14.3656 14.4383 14.3169 14.4234 14.2709C14.4085 14.2249 14.3841 14.1825 14.3518 14.1465C14.3194 14.1105 14.2799 14.0817 14.2357 14.062C14.1915 14.0423 14.1437 14.0322 14.0953 14.0322C14.0469 14.0322 13.9991 14.0423 13.9549 14.062C13.9107 14.0817 13.8712 14.1105 13.8388 14.1465C13.8065 14.1825 13.7821 14.2249 13.7672 14.2709C13.7523 14.3169 13.7473 14.3656 13.7524 14.4137V18.6318H10.2533V10.2583H13.7524V12.9766C13.7473 13.0247 13.7523 13.0734 13.7672 13.1194C13.7821 13.1654 13.8065 13.2078 13.8388 13.2438C13.8712 13.2798 13.9107 13.3086 13.9549 13.3283C13.9991 13.348 14.0469 13.3581 14.0953 13.3581C14.1437 13.3581 14.1915 13.348 14.2357 13.3283C14.2799 13.3086 14.3194 13.2798 14.3518 13.2438C14.3841 13.2078 14.4085 13.1654 14.4234 13.1194C14.4383 13.0734 14.4433 13.0247 14.4381 12.9766V5.08602H14.5106C14.7438 5.08087 14.9654 4.98356 15.127 4.81539C15.2885 4.64721 15.3769 4.42188 15.3727 4.18871V1.14218C15.3769 0.909011 15.2885 0.683675 15.127 0.515501C14.9654 0.347328 14.7438 0.250018 14.5106 0.244873ZM12.3712 4.36798V0.962914H13.1676V4.36895L12.3712 4.36798ZM10.8891 4.36798V0.962914H11.6826V4.36895L10.8891 4.36798ZM9.31587 4.18773V1.14218C9.31535 1.11902 9.31939 1.09599 9.32777 1.0744C9.33616 1.0528 9.34871 1.03308 9.36472 1.01634C9.38073 0.999599 9.39989 0.986179 9.42109 0.976845C9.44229 0.96751 9.46512 0.962443 9.48828 0.961935H10.2004V4.36798H9.48828C9.46487 4.36747 9.44178 4.36231 9.42039 4.35279C9.39899 4.34328 9.37971 4.32959 9.36366 4.31254C9.34761 4.29548 9.33511 4.2754 9.32691 4.25347C9.3187 4.23154 9.31496 4.20819 9.31587 4.18479V4.18773ZM13.7495 19.3489V21.2101C13.7607 21.4468 13.7238 21.6833 13.6409 21.9054C13.558 22.1274 13.431 22.3303 13.2674 22.5018C13.1038 22.6733 12.9072 22.8098 12.6893 22.9031C12.4715 22.9963 12.2369 23.0444 11.9999 23.0444C11.763 23.0444 11.5284 22.9963 11.3106 22.9031C11.0927 22.8098 10.8961 22.6733 10.7325 22.5018C10.5689 22.3303 10.4419 22.1274 10.359 21.9054C10.2761 21.6833 10.2392 21.4468 10.2504 21.2101V19.3489H13.7495ZM13.7495 9.54218H10.2504V5.08602H13.7495V9.54218ZM14.684 4.18773C14.6846 4.21089 14.6805 4.23392 14.6721 4.25551C14.6637 4.2771 14.6512 4.29683 14.6352 4.31357C14.6192 4.33031 14.6 4.34373 14.5788 4.35306C14.5576 4.3624 14.5348 4.36747 14.5116 4.36798H13.8573V0.962914H14.5116C14.5348 0.963423 14.5576 0.968489 14.5788 0.977824C14.6 0.987158 14.6192 1.00058 14.6352 1.01732C14.6512 1.03406 14.6637 1.05378 14.6721 1.07538C14.6805 1.09697 14.6846 1.12 14.684 1.14316V4.18773Z" fill="#707070" stroke="#707070" stroke-width="0.5"/>
<path d="M22.893 0.244873H17.8706C17.6375 0.250018 17.4159 0.347328 17.2543 0.515501C17.0927 0.683675 17.0044 0.909011 17.0086 1.14218V4.18479C17.0044 4.41796 17.0927 4.6433 17.2543 4.81147C17.4159 4.97964 17.6375 5.07695 17.8706 5.0821H17.9431V21.215C17.9299 21.5434 17.9832 21.8711 18.0998 22.1784C18.2164 22.4857 18.3939 22.7663 18.6216 23.0033C18.8493 23.2403 19.1226 23.4289 19.425 23.5577C19.7273 23.6865 20.0526 23.7529 20.3813 23.7529C20.71 23.7529 21.0353 23.6865 21.3377 23.5577C21.64 23.4289 21.9133 23.2403 22.141 23.0033C22.3687 22.7663 22.5462 22.4857 22.6628 22.1784C22.7794 21.8711 22.8327 21.5434 22.8195 21.215V5.08602H22.892C23.1252 5.08087 23.3468 4.98356 23.5083 4.81539C23.6699 4.64721 23.7583 4.42188 23.7541 4.18871V1.14218C23.7583 0.909011 23.6699 0.683675 23.5083 0.515501C23.3468 0.347328 23.1252 0.250018 22.892 0.244873H22.893ZM20.7712 4.36798V0.962914H21.5676V4.36895L20.7712 4.36798ZM19.2891 4.36798V0.962914H20.0825V4.36895L19.2891 4.36798ZM17.6962 4.18479V1.14218C17.6957 1.11902 17.6998 1.09599 17.7082 1.0744C17.7165 1.0528 17.7291 1.03308 17.7451 1.01634C17.7611 0.999599 17.7803 0.986179 17.8015 0.976845C17.8227 0.96751 17.8455 0.962443 17.8687 0.961935H18.5975V4.36798H17.8687C17.8453 4.36747 17.8222 4.36231 17.8008 4.35279C17.7794 4.34328 17.7601 4.32959 17.744 4.31254C17.728 4.29548 17.7155 4.2754 17.7073 4.25347C17.6991 4.23154 17.6953 4.20819 17.6962 4.18479ZM22.1299 18.6289H18.6308V10.2583H22.1299V18.6289ZM20.3803 23.037C19.9068 23.0265 19.4568 22.8287 19.1289 22.487C18.801 22.1453 18.6218 21.6875 18.6308 21.214V19.3528H22.1299V21.214C22.1388 21.6872 21.96 22.1447 21.6325 22.4863C21.3049 22.828 20.8554 23.026 20.3823 23.037H20.3803ZM22.1299 9.54218H18.6308V5.08602H22.1299V9.54218ZM23.0644 4.18773C23.0649 4.21089 23.0609 4.23392 23.0525 4.25551C23.0441 4.2771 23.0316 4.29683 23.0156 4.31357C22.9996 4.33031 22.9804 4.34373 22.9592 4.35306C22.938 4.3624 22.9152 4.36747 22.892 4.36798H22.2553V0.962914H22.892C22.9152 0.963423 22.938 0.968489 22.9592 0.977824C22.9804 0.987158 22.9996 1.00058 23.0156 1.01732C23.0316 1.03406 23.0441 1.05378 23.0525 1.07538C23.0609 1.09697 23.0649 1.12 23.0644 1.14316V4.18773Z" fill="#707070" stroke="#707070" stroke-width="0.5"/>
</g>
<defs>
<clipPath id="clip0_5681_916">
<rect width="24" height="24" fill="white"/>
</clipPath>
</defs>
</svg>
