<svg xmlns="http://www.w3.org/2000/svg" width="18" height="18" viewBox="0 0 18 18">
  <g id="icon-pharmacy" transform="translate(1 1)">
    <g id="g289">
      <path id="path291" d="M-313.41-626.82a8.016,8.016,0,0,0,8-8,8.016,8.016,0,0,0-8-8,8.016,8.016,0,0,0-8,8A8.016,8.016,0,0,0-313.41-626.82Z" transform="translate(321.41 642.82)" fill="none" stroke="#a4a4a4" stroke-linecap="round" stroke-linejoin="round" stroke-width="2"/>
    </g>
    <g id="g293" transform="translate(4.896 4.896)">
      <g id="path295" transform="translate(399.999 140)" fill="none" stroke-linecap="round" stroke-linejoin="round">
        <path d="M-393.792-137.827v1.862h-2.172v2.172h-1.862v-2.172H-400v-1.862h2.172V-140h1.862v2.172Z" stroke="none"/>
        <path d="M -397.8265380859375 -139.9996490478516 L -397.8265380859375 -137.8271942138672 L -399.9990234375 -137.8271942138672 L -399.9990234375 -135.9650726318359 L -397.8265380859375 -135.9650726318359 L -397.8265380859375 -133.7926177978516 L -395.9644775390625 -133.7926177978516 L -395.9644775390625 -135.9650726318359 L -393.7919921875 -135.9650726318359 L -393.7919921875 -137.8271942138672 L -395.9644775390625 -137.8271942138672 L -395.9644775390625 -139.9996490478516 L -397.8265380859375 -139.9996490478516 M -397.8265380859375 -141.9996490478516 L -395.9644775390625 -141.9996490478516 C -394.8598937988281 -141.9996490478516 -393.9644775390625 -141.1042175292969 -393.9644775390625 -139.9996490478516 L -393.9644775390625 -139.8271942138672 L -393.7919921875 -139.8271942138672 C -392.6874084472656 -139.8271942138672 -391.7919921875 -138.9317626953125 -391.7919921875 -137.8271942138672 L -391.7919921875 -135.9650726318359 C -391.7919921875 -134.8605041503906 -392.6874084472656 -133.9650726318359 -393.7919921875 -133.9650726318359 L -393.9644775390625 -133.9650726318359 L -393.9644775390625 -133.7926177978516 C -393.9644775390625 -132.6880493164062 -394.8598937988281 -131.7926177978516 -395.9644775390625 -131.7926177978516 L -397.8265380859375 -131.7926177978516 C -398.9311218261719 -131.7926177978516 -399.8265380859375 -132.6880493164062 -399.8265380859375 -133.7926177978516 L -399.8265380859375 -133.9650726318359 L -399.9990234375 -133.9650726318359 C -401.1036071777344 -133.9650726318359 -401.9990234375 -134.8605041503906 -401.9990234375 -135.9650726318359 L -401.9990234375 -137.8271942138672 C -401.9990234375 -138.9317626953125 -401.1036071777344 -139.8271942138672 -399.9990234375 -139.8271942138672 L -399.8265380859375 -139.8271942138672 L -399.8265380859375 -139.9996490478516 C -399.8265380859375 -141.1042175292969 -398.9311218261719 -141.9996490478516 -397.8265380859375 -141.9996490478516 Z" stroke="none" fill="#a4a4a4"/>
      </g>
    </g>
  </g>
</svg>
