<svg xmlns="http://www.w3.org/2000/svg" width="20" height="17" viewBox="0 0 20 17">
  <g id="icon-patient-request" transform="translate(2 2)">
    <g id="Rectangle_328" data-name="Rectangle 328" transform="translate(0 8)" fill="none" stroke="#a4a4a4" stroke-width="2">
      <path d="M4,0H4A4,4,0,0,1,8,4V5A0,0,0,0,1,8,5H0A0,0,0,0,1,0,5V4A4,4,0,0,1,4,0Z" stroke="none"/>
      <path d="M4-1H4A5,5,0,0,1,9,4V5A1,1,0,0,1,8,6H0A1,1,0,0,1-1,5V4A5,5,0,0,1,4-1Z" fill="none"/>
    </g>
    <g id="Rectangle_329" data-name="Rectangle 329" transform="translate(11)" fill="none" stroke="#a4a4a4" stroke-width="2">
      <path d="M2,0H3A2,2,0,0,1,5,2V3A2,2,0,0,1,3,5H0A0,0,0,0,1,0,5V2A2,2,0,0,1,2,0Z" stroke="none"/>
      <path d="M2-1H3A3,3,0,0,1,6,2V3A3,3,0,0,1,3,6H0A1,1,0,0,1-1,5V2A3,3,0,0,1,2-1Z" fill="none"/>
    </g>
    <g id="Ellipse_53" data-name="Ellipse 53" transform="translate(2 1)" fill="none" stroke="#a4a4a4" stroke-width="2">
      <circle cx="2" cy="2" r="2" stroke="none"/>
      <circle cx="2" cy="2" r="3" fill="none"/>
    </g>
  </g>
</svg>
