<svg id="icon-task" xmlns="http://www.w3.org/2000/svg" xmlns:xlink="http://www.w3.org/1999/xlink" width="24" height="24" viewBox="0 0 24 24">
  <defs>
    <clipPath id="clip-path">
      <path id="path2808" d="M0-682.665H24v24H0Z" transform="translate(0 682.665)" fill="#707070"/>
    </clipPath>
  </defs>
  <g id="g2804">
    <g id="g2806" clip-path="url(#clip-path)">
      <g id="g2812" transform="translate(3.688 2.784)">
        <path id="path2814" d="M-329.336,0h3.219a1.406,1.406,0,0,1,1.406,1.406V18.872a1.406,1.406,0,0,1-1.406,1.406H-339.93a1.406,1.406,0,0,1-1.406-1.406V1.406A1.406,1.406,0,0,1-339.93,0h3.219" transform="translate(341.336)" fill="none" stroke="#707070" stroke-linecap="round" stroke-linejoin="round" stroke-width="1.5"/>
      </g>
      <path id="path2816" d="M243.815-652.3h-7.375V-656h7.375Z" transform="translate(-228.127 656.936)" fill="none" stroke="#707070" stroke-linecap="round" stroke-linejoin="round" stroke-width="1.5"/>
    </g>
  </g>
  <g id="g2822">
    <g id="g2824" clip-path="url(#clip-path)">
      <g id="g2830" transform="translate(8.313 11.21)">
        <path id="path2832" d="M0-68.015l2.448,2.448,4.927-4.927" transform="translate(0 70.493)" fill="none" stroke="#707070" stroke-linecap="round" stroke-linejoin="round" stroke-width="1.5"/>
      </g>
    </g>
  </g>
</svg>
