<svg xmlns="http://www.w3.org/2000/svg" width="24" height="15.984" viewBox="0 0 24 15.984">
  <g id="icon-inbox" transform="translate(0 0.75)">
    <g id="Subtraction_1" data-name="Subtraction 1" transform="translate(0 6.618)" fill="none" stroke-linecap="round" stroke-linejoin="round">
      <path d="M17.384,8.616H6.615A5.776,5.776,0,0,1,1.523,6.092,10.9,10.9,0,0,1,0,0H7.637a5.227,5.227,0,0,0,1.28,3.48A4.1,4.1,0,0,0,12,4.923,4.674,4.674,0,0,0,16.364,0H24a10.9,10.9,0,0,1-1.524,6.092A5.777,5.777,0,0,1,17.384,8.616Z" stroke="none"/>
      <path d="M 17.38440132141113 7.115699768066406 C 19.12292098999023 7.115699768066406 20.38277244567871 6.505199909210205 21.23595237731934 5.24931001663208 C 21.86781692504883 4.319180965423584 22.27215003967285 3.040130138397217 22.42783737182617 1.49999988079071 L 17.70235061645508 1.49999988079071 C 17.08388137817383 4.320411682128906 14.76169872283936 6.422999858856201 11.99970149993896 6.422999858856201 C 10.40090179443359 6.422999858856201 8.907111167907715 5.731019973754883 7.793501853942871 4.474539756774902 C 7.050411701202393 3.636116743087769 6.539452075958252 2.611693620681763 6.297164440155029 1.49999988079071 L 1.57246196269989 1.49999988079071 C 1.728139162063599 3.040128946304321 2.132446765899658 4.319192886352539 2.764281749725342 5.249360084533691 C 3.617351531982422 6.50521993637085 4.876931667327881 7.115699768066406 6.615001678466797 7.115699768066406 L 17.38440132141113 7.115699768066406 M 17.38440132141113 8.615699768066406 L 6.615001678466797 8.615699768066406 C 4.373931407928467 8.615699768066406 2.660891532897949 7.766679763793945 1.523471593856812 6.092209815979004 C 0.5268116593360901 4.624949932098389 1.634216346246831e-06 2.51829981803894 1.634216346246831e-06 -1.159667988304136e-07 L 7.636501789093018 -1.159667988304136e-07 C 7.637021541595459 1.313409924507141 8.091092109680176 2.548809766769409 8.916061401367188 3.479619979858398 C 9.741002082824707 4.410399913787842 10.83613204956055 4.922999858856201 11.99970149993896 4.922999858856201 C 14.40607166290283 4.922999858856201 16.36380195617676 2.714549779891968 16.36380195617676 -1.159667988304136e-07 L 24.00030136108398 -1.159667988304136e-07 C 24.00030136108398 2.519189834594727 23.47311210632324 4.625499725341797 22.47672080993652 6.092209815979004 C 21.33918190002441 7.766679763793945 19.6258716583252 8.615699768066406 17.38440132141113 8.615699768066406 Z" stroke="none" fill="#707070"/>
    </g>
    <path id="Path_112" data-name="Path 112" d="M-16160.625-7322.975-16166-7330h-12l-5.375,7.025" transform="translate(16184 7330)" fill="none" stroke="#707070" stroke-width="1.5"/>
  </g>
</svg>
