<svg xmlns="http://www.w3.org/2000/svg" width="88" height="88" viewBox="0 0 88 88">
  <g id="droxi_widget" transform="translate(0 -3)">
    <circle id="Ellipse_8" data-name="Ellipse 8" cx="44" cy="44" r="44" transform="translate(0 3)" fill="#00e0d0"/>
    <path id="droxi_mini_logo" d="M450.827,1509.371H438.31a.307.307,0,0,0-.308.307v18.133l-.046.021-6.048-8.906a.4.4,0,0,0-.512-.1l-1.941,1.341a.4.4,0,0,0-.084.515l6.454,9.26a4.152,4.152,0,1,0,5.337-2.15c.032-5.139.105-15.632.105-15.683h9.92c9.254,0,17.117,6.49,17.117,19.342,0,13.871-8.95,19.725-16.874,19.725H438.005v2.354a.4.4,0,0,0,.363.381h12.58c10.947,0,20.564-7.762,20.564-22.523C471.512,1517.832,462.984,1509.371,450.827,1509.371Z" transform="translate(-406.314 -1484.371)" fill="#192029"/>
  </g>
</svg>
