<svg xmlns="http://www.w3.org/2000/svg" width="18" height="24" viewBox="0 0 18 24">
  <g id="medicine" transform="translate(0 0)">
    <path id="Path_56" data-name="Path 56" d="M34.22,45.98H22.76a3.07,3.07,0,0,1-3.27-2.8V31.267a3.069,3.069,0,0,1,3.27-2.807H34.22a3.069,3.069,0,0,1,3.27,2.807V43.176A3.07,3.07,0,0,1,34.22,45.98ZM22.76,29.684a1.731,1.731,0,0,0-1.842,1.582V43.176a1.729,1.729,0,0,0,1.842,1.58H34.22a1.729,1.729,0,0,0,1.842-1.58V31.267a1.731,1.731,0,0,0-1.842-1.582Z" transform="translate(-19.49 -21.98)" fill="#192029"/>
    <path id="Path_57" data-name="Path 57" d="M42.187,23.2H32.824a.669.669,0,0,1-.714-.612v-2.1a.669.669,0,0,1,.714-.612h9.363a.669.669,0,0,1,.714.612V22.6A.671.671,0,0,1,42.187,23.2Zm-8.649-1.224h7.935v-.879H33.538Z" transform="translate(-28.506 -15.494)" fill="#192029"/>
    <path id="Path_58" data-name="Path 58" d="M37.873,7.6H26.694A1.777,1.777,0,0,1,24.8,5.977V3.626A1.779,1.779,0,0,1,26.694,2H37.873a1.779,1.779,0,0,1,1.894,1.626V5.977A1.777,1.777,0,0,1,37.873,7.6ZM26.694,3.224a.507.507,0,0,0-.33.118.372.372,0,0,0-.135.284V5.977a.436.436,0,0,0,.466.4H37.873a.436.436,0,0,0,.466-.4V3.626a.372.372,0,0,0-.135-.284.507.507,0,0,0-.33-.118Z" transform="translate(-23.284 -2)" fill="#192029"/>
    <path id="Path_59" data-name="Path 59" d="M44.069,7.6H37.214a.669.669,0,0,1-.714-.612V2.612A.669.669,0,0,1,37.214,2h6.855a.669.669,0,0,1,.714.612V6.989A.669.669,0,0,1,44.069,7.6ZM37.945,6.376h5.4V3.224h-5.41Z" transform="translate(-31.642 -2)" fill="#192029"/>
    <path id="Path_60" data-name="Path 60" d="M49.214,7.6a.669.669,0,0,1-.714-.612V2.612a.723.723,0,0,1,1.428,0V6.989A.669.669,0,0,1,49.214,7.6Z" transform="translate(-40.214 -2)" fill="#192029"/>
    <path id="Path_61" data-name="Path 61" d="M36.245,54.261a4.785,4.785,0,1,1,4.785-4.785A4.785,4.785,0,0,1,36.245,54.261Zm0-8.346a3.561,3.561,0,1,0,3.561,3.561A3.561,3.561,0,0,0,36.245,45.914Z" transform="translate(-27.029 -34.235)" fill="#192029"/>
    <path id="Path_62" data-name="Path 62" d="M49.112,58.582a.612.612,0,0,1-.612-.612v-4.2a.612.612,0,0,1,1.224,0v4.2A.612.612,0,0,1,49.112,58.582Z" transform="translate(-39.896 -40.631)" fill="#192029"/>
    <path id="Path_63" data-name="Path 63" d="M44.74,62.954h-4.2a.612.612,0,1,1,0-1.224h4.2a.612.612,0,0,1,0,1.224Z" transform="translate(-33.424 -47.102)" fill="#192029"/>
  </g>
</svg>
