<svg xmlns="http://www.w3.org/2000/svg" width="22.509" height="17.5" viewBox="0 0 22.509 17.5">
  <g id="next" transform="translate(0.75 0.75)">
    <g id="Icon_feather-calendar" data-name="Icon feather-calendar" transform="translate(0)">
      <path id="Path_42" data-name="Path 42" d="M17.3,6H6.1A1.6,1.6,0,0,0,4.5,7.6V18.8a1.6,1.6,0,0,0,1.6,1.6H17.3a1.6,1.6,0,0,0,1.6-1.6V7.6A1.6,1.6,0,0,0,17.3,6Z" transform="translate(-4.5 -4.4)" fill="none" stroke="#707070" stroke-linecap="round" stroke-linejoin="round" stroke-width="1.5"/>
      <path id="Path_43" data-name="Path 43" d="M24,3V6.2" transform="translate(-20 -3)" fill="none" stroke="#707070" stroke-linecap="round" stroke-linejoin="round" stroke-width="1.5"/>
      <path id="Path_44" data-name="Path 44" d="M12,3V6.2" transform="translate(-1.6 -3)" fill="none" stroke="#707070" stroke-linecap="round" stroke-linejoin="round" stroke-width="1.5"/>
      <path id="Path_45" data-name="Path 45" d="M18.9,15H4.5" transform="translate(-4.5 -8.6)" fill="none" stroke="#707070" stroke-linecap="round" stroke-linejoin="round" stroke-width="1.5"/>
    </g>
    <g id="Group_156" data-name="Group 156" transform="translate(6.9 8)">
      <line id="Line_26" data-name="Line 26" x2="13" transform="translate(0 3.5)" fill="none" stroke="#707070" stroke-linecap="round" stroke-width="1.5"/>
      <path id="Path_46" data-name="Path 46" d="M13054.6,5274l2.778,3.578-2.778,3.353" transform="translate(-13043.48 -5274)" fill="none" stroke="#707070" stroke-linecap="round" stroke-width="1.5"/>
    </g>
  </g>
</svg>
