<svg xmlns="http://www.w3.org/2000/svg" width="22.509" height="17.5" viewBox="0 0 22.509 17.5">
  <g id="previous" transform="translate(-1360.641 -521.25)">
    <g id="Icon_feather-calendar" data-name="Icon feather-calendar" transform="translate(1363.5 519)">
      <path id="Path_42" data-name="Path 42" d="M6.1,6H17.3a1.6,1.6,0,0,1,1.6,1.6V18.8a1.6,1.6,0,0,1-1.6,1.6H6.1a1.6,1.6,0,0,1-1.6-1.6V7.6A1.6,1.6,0,0,1,6.1,6Z" transform="translate(0 -1.4)" fill="none" stroke="#707070" stroke-linecap="round" stroke-linejoin="round" stroke-width="1.5"/>
      <path id="Path_43" data-name="Path 43" d="M24,3V6.2" transform="translate(-9.1)" fill="none" stroke="#707070" stroke-linecap="round" stroke-linejoin="round" stroke-width="1.5"/>
      <path id="Path_44" data-name="Path 44" d="M12,3V6.2" transform="translate(-3.5)" fill="none" stroke="#707070" stroke-linecap="round" stroke-linejoin="round" stroke-width="1.5"/>
      <path id="Path_45" data-name="Path 45" d="M4.5,15H18.9" transform="translate(0 -5.6)" fill="none" stroke="#707070" stroke-linecap="round" stroke-linejoin="round" stroke-width="1.5"/>
    </g>
    <g id="Group_156" data-name="Group 156">
      <line id="Line_26" data-name="Line 26" x1="13" transform="translate(1362.5 533.5)" fill="none" stroke="#707070" stroke-linecap="round" stroke-width="1.5"/>
      <path id="Path_46" data-name="Path 46" d="M13057.38,5274l-2.778,3.578,2.778,3.353" transform="translate(-11693 -4744)" fill="none" stroke="#707070" stroke-linecap="round" stroke-width="1.5"/>
    </g>
  </g>
</svg>
