<svg xmlns="http://www.w3.org/2000/svg" width="21.2" height="26" viewBox="0 0 21.2 26">
  <g id="record" transform="translate(1 1)">
    <path id="Path_4" data-name="Path 4" d="M20.4,6h2.4a2.4,2.4,0,0,1,2.4,2.4V25.2a2.4,2.4,0,0,1-2.4,2.4H8.4A2.4,2.4,0,0,1,6,25.2V8.4A2.4,2.4,0,0,1,8.4,6h2.4" transform="translate(-6 -3.6)" fill="none" stroke="#192029" stroke-linecap="round" stroke-linejoin="round" stroke-width="2"/>
    <path id="Path_5" data-name="Path 5" d="M13.2,3h7.2a1.2,1.2,0,0,1,1.2,1.2V6.6a1.2,1.2,0,0,1-1.2,1.2H13.2A1.2,1.2,0,0,1,12,6.6V4.2A1.2,1.2,0,0,1,13.2,3Z" transform="translate(-7.2 -3)" fill="none" stroke="#192029" stroke-linecap="round" stroke-linejoin="round" stroke-width="2"/>
  </g>
</svg>
