<svg xmlns="http://www.w3.org/2000/svg" width="32.5" height="32.5" viewBox="0 0 32.5 32.5">
  <g id="sample" transform="translate(0.25 0.25)">
    <g id="Group_127" data-name="Group 127" transform="translate(0 0)">
      <path id="Path_20" data-name="Path 20" d="M8.009,10.278H1.173A1.2,1.2,0,0,0,0,11.5v4.145a1.2,1.2,0,0,0,1.173,1.222h.1v.844a.479.479,0,0,0,.469.488.479.479,0,0,0,.469-.488v-.844H6.972v6.066H2.209V19.664a.479.479,0,0,0-.469-.488.479.479,0,0,0-.469.488V38.82a3.394,3.394,0,0,0,3.319,3.458A3.394,3.394,0,0,0,7.91,38.82V16.867h.1a1.2,1.2,0,0,0,1.173-1.222V11.5a1.2,1.2,0,0,0-1.173-1.222ZM6.972,23.91V35.3H2.209V23.91ZM4.591,41.3A2.436,2.436,0,0,1,2.209,38.82V36.281H6.972V38.82A2.435,2.435,0,0,1,4.591,41.3Zm.594-30.047H6.268V15.89H5.184ZM4.247,15.89H3.167V11.255h1.08ZM.937,15.645V11.5a.241.241,0,0,1,.235-.245H2.229V15.89H1.173a.241.241,0,0,1-.235-.245Zm7.306,0a.241.241,0,0,1-.235.245h-.8V11.255h.8a.241.241,0,0,1,.235.245Z" transform="translate(0 -10.278)" fill="#fff" stroke="#fff" stroke-width="0.5"/>
      <path id="Path_24" data-name="Path 24" d="M190.558,10.278h-6.836A1.2,1.2,0,0,0,182.55,11.5v4.145a1.2,1.2,0,0,0,1.173,1.222h.1V38.82a3.322,3.322,0,1,0,6.638,0V29.564a.469.469,0,1,0-.937,0V35.3h-4.763V23.91h4.763v3.7a.469.469,0,1,0,.938,0V16.867h.1a1.2,1.2,0,0,0,1.173-1.222V11.5a1.2,1.2,0,0,0-1.173-1.222Zm-2.912,5.612V11.255h1.084V15.89Zm-2.018,0V11.255h1.08V15.89Zm-2.142-.245V11.5a.241.241,0,0,1,.235-.245h.969V15.89h-.969A.241.241,0,0,1,183.487,15.645Zm6.035,20.636V38.82a2.383,2.383,0,1,1-4.763,0V36.281Zm0-13.348h-4.763V16.867h4.763Zm1.272-7.288a.241.241,0,0,1-.235.245h-.891V11.255h.891a.241.241,0,0,1,.235.245Z" transform="translate(-171.141 -10.278)" fill="#fff" stroke="#fff" stroke-width="0.5"/>
      <path id="Path_28" data-name="Path 28" d="M373.108,10.278h-6.836A1.2,1.2,0,0,0,365.1,11.5v4.145a1.2,1.2,0,0,0,1.173,1.222h.1V38.82a3.322,3.322,0,1,0,6.638,0V16.867h.1a1.2,1.2,0,0,0,1.173-1.222V11.5a1.2,1.2,0,0,0-1.173-1.222Zm-2.888,5.612V11.255H371.3V15.89Zm-2.017,0V11.255h1.08V15.89Zm-2.165-.245V11.5a.241.241,0,0,1,.235-.245h.992V15.89h-.992A.241.241,0,0,1,366.037,15.645ZM372.071,35.3h-4.763V23.91h4.763Zm-2.381,6a2.436,2.436,0,0,1-2.382-2.481V36.281h4.763V38.82A2.435,2.435,0,0,1,369.69,41.3Zm2.381-18.368h-4.763V16.867h4.763Zm1.272-7.288a.241.241,0,0,1-.235.245h-.867V11.255h.867a.241.241,0,0,1,.235.245Z" transform="translate(-342.28 -10.278)" fill="#fff" stroke="#fff" stroke-width="0.5"/>
    </g>
  </g>
</svg>
