<svg version="1.1" id="Layer_1" xmlns="http://www.w3.org/2000/svg" xmlns:xlink="http://www.w3.org/1999/xlink" x="0px" y="0px"
	 width="100%" viewBox="0 0 512 512" enable-background="new 0 0 512 512" xml:space="preserve">
<path fill="#000000" opacity="1.000000" stroke="none" 
	d="
M513.000000,174.531342 
	C507.651062,189.475128 496.699493,196.047089 481.841980,197.404556 
	C473.760742,198.142929 468.805481,209.215881 473.252655,216.034500 
	C477.029510,221.825317 481.181488,227.241821 482.648895,234.443542 
	C484.377625,242.927673 482.828583,250.789352 478.052338,257.172211 
	C471.918793,265.368927 464.716248,273.068878 456.079926,278.742004 
	C445.777374,285.509644 434.785400,285.125244 424.101501,279.007874 
	C421.519257,277.529327 419.031616,275.823669 416.717377,273.953949 
	C413.486847,271.343964 410.630432,271.157928 406.378082,272.413330 
	C399.171661,274.540863 397.092926,279.117645 396.300690,285.707672 
	C394.091797,304.081970 382.289917,314.430145 363.681915,314.310089 
	C356.564789,314.264191 349.447418,314.978790 342.308228,313.505951 
	C328.933655,310.746765 319.789917,301.627533 317.666382,288.222382 
	C317.485565,287.080933 316.967743,285.931335 317.051941,284.819214 
	C317.715179,276.055786 311.086212,274.005005 304.923645,271.573761 
	C303.202362,270.894684 301.540924,270.852020 299.832031,272.247131 
	C297.529175,274.127106 294.860565,275.551788 292.407104,277.255646 
	C278.330597,287.031433 262.876678,285.220093 250.257568,273.340729 
	C245.559311,268.917877 240.913727,264.381622 236.985886,259.143311 
	C229.129044,248.665207 228.377365,234.233658 235.491989,223.196320 
	C236.212616,222.078369 237.052582,221.038025 237.794724,219.933151 
	C243.607300,211.279648 243.524506,211.311935 239.420746,201.826660 
	C237.962234,198.455460 234.926666,198.158157 232.110550,197.444427 
	C227.953766,196.390900 223.595062,195.993988 219.563126,194.613998 
	C207.391846,190.448196 201.124527,181.112045 199.959366,168.879715 
	C199.131058,160.183884 199.074905,151.319870 200.397934,142.512772 
	C202.566528,128.076981 214.267929,118.859154 227.570343,117.694283 
	C234.508881,117.086685 239.439346,114.757263 241.517639,107.410706 
	C242.518280,103.873550 242.676895,101.388031 240.342575,98.269447 
	C234.524887,90.497223 229.673782,82.269562 230.607285,71.843697 
	C231.237091,64.809654 233.316925,58.569878 238.385727,53.506668 
	C243.217484,48.680248 248.058121,43.862720 252.882874,39.029324 
	C262.166473,29.729122 277.996246,27.935715 289.193237,34.942204 
	C291.303528,36.262707 293.617798,37.383339 295.417053,39.050468 
	C300.264801,43.542278 304.947021,43.001568 310.701477,40.421127 
	C314.787811,38.588726 316.147827,36.055336 316.600830,32.274326 
	C317.154541,27.653208 318.039673,23.121449 319.632111,18.730078 
	C322.910278,9.690115 330.059113,4.876966 338.714783,1.184845 
	C350.354218,1.000000 361.708466,1.000000 373.844421,1.155077 
	C379.468842,2.811277 383.638672,5.287347 387.394897,8.807482 
	C394.647980,15.604758 396.004028,24.590605 397.311218,33.640472 
	C397.666718,36.101711 398.295685,38.064014 400.736420,39.249393 
	C410.608185,44.043789 410.612274,44.078396 419.788330,37.939548 
	C420.341736,37.569298 420.871307,37.163357 421.410919,36.772518 
	C434.061981,27.609144 451.076630,28.971214 462.351532,40.129807 
	C466.378296,44.114994 470.621490,47.907909 474.380066,52.131916 
	C481.459076,60.087521 484.651855,69.146240 482.535370,80.063683 
	C481.202942,86.936790 477.555237,92.310043 473.577301,97.588226 
	C471.414520,100.457947 469.791473,103.216293 471.884216,106.524590 
	C474.341003,110.408424 473.985565,116.349106 481.070587,116.821823 
	C495.930725,117.813293 507.358643,124.411285 513.000000,139.000000 
	C513.000000,150.687561 513.000000,162.375122 513.000000,174.531342 
M341.216278,52.194912 
	C339.784485,57.915565 335.994720,61.146389 330.459351,62.797367 
	C325.051392,64.410339 319.528137,65.961174 314.800171,69.126068 
	C303.968903,76.376480 294.222076,74.303673 284.967041,66.220772 
	C284.094238,65.458496 283.159271,64.762535 282.218872,64.083221 
	C273.297333,57.638405 273.294128,57.640301 265.502319,65.516571 
	C263.745148,67.292809 261.879944,68.980080 260.279877,70.888885 
	C258.666962,72.813065 258.281464,74.630814 260.203064,77.050156 
	C263.805756,81.586060 266.881165,86.540817 270.174438,91.322380 
	C274.343353,97.375282 274.522095,103.549828 271.112030,110.060287 
	C267.566467,116.829453 264.836578,123.948730 262.517181,131.243805 
	C260.804382,136.631012 257.468872,140.513351 251.478424,141.505783 
	C246.259705,142.370392 241.093628,143.574692 235.860916,144.327393 
	C228.515015,145.384079 227.395218,146.475586 227.352982,153.754868 
	C227.338470,156.253952 227.594818,158.782547 227.299301,161.246323 
	C226.661682,166.562027 229.325195,168.842926 234.168335,169.620758 
	C240.033081,170.562668 245.895706,171.551636 251.712708,172.746704 
	C256.553864,173.741287 259.904602,176.475601 261.777832,181.324982 
	C264.825317,189.214218 267.303528,197.324051 271.328125,204.850571 
	C274.850189,211.437256 274.296021,217.807388 269.371399,223.831436 
	C266.024323,227.925781 263.307709,232.530228 260.201569,236.828827 
	C258.313812,239.441315 258.468140,241.506454 260.928833,243.746536 
	C264.250885,246.770767 267.399933,250.002914 270.435455,253.317810 
	C272.545288,255.621841 274.381653,255.693954 276.853882,253.834732 
	C281.096710,250.643951 285.713684,247.936981 289.855133,244.628235 
	C296.231689,239.533707 302.902435,239.169327 309.816711,242.906601 
	C316.725830,246.641144 324.057709,249.276764 331.452545,251.723419 
	C336.928864,253.535324 340.124023,257.149353 341.274536,262.577271 
	C342.474274,268.237427 343.418671,273.954926 344.352905,279.667236 
	C345.127899,284.405853 347.175446,287.277771 352.596680,286.710449 
	C355.893158,286.365479 359.254669,286.660461 362.586639,286.630951 
	C365.999573,286.600708 368.193604,285.238983 368.825165,281.555298 
	C369.943207,275.034088 371.290833,268.551483 372.590332,262.062347 
	C373.639160,256.824860 377.174164,253.456741 381.867462,251.834152 
	C389.430450,249.219452 396.710999,246.073959 403.925140,242.635544 
	C410.639099,239.435532 417.321075,239.467484 423.600311,244.354706 
	C427.912750,247.711121 432.711578,250.446350 436.990692,253.840393 
	C439.413971,255.762482 441.221008,255.356598 443.098938,253.578323 
	C446.122009,250.715668 448.902832,247.588394 452.013947,244.829956 
	C455.155487,242.044479 455.103546,239.268677 452.834473,236.077057 
	C449.568176,231.482697 446.378510,226.833923 443.139618,222.219971 
	C440.451202,218.390274 438.869385,214.262817 440.670044,209.654053 
	C444.588623,199.624252 448.539459,189.601990 452.769623,179.701630 
	C454.326904,176.056961 457.483215,173.698380 461.481964,172.912201 
	C467.487762,171.731430 473.531555,170.744537 479.540222,169.577454 
	C482.119171,169.076538 485.226715,168.843201 485.938812,165.692642 
	C487.230225,159.978745 487.132111,154.149933 485.980103,148.410614 
	C485.579376,146.413971 483.720978,145.702103 481.809784,145.356033 
	C476.440613,144.383881 471.091522,143.293350 465.708527,142.407227 
	C458.708984,141.255005 453.158691,138.528748 451.050415,130.978439 
	C448.994812,123.616646 446.331696,116.435051 442.500824,109.787926 
	C438.616669,103.048347 439.628235,96.782104 443.855469,90.715248 
	C446.988708,86.218468 450.182587,81.762711 453.418243,77.338997 
	C454.807648,75.439445 455.734650,73.766342 453.578217,71.696045 
	C449.733704,68.004997 445.997253,64.198547 442.291779,60.366684 
	C440.554108,58.569756 438.905823,58.662121 437.026703,60.061188 
	C433.170837,62.931961 429.305847,65.792175 425.391266,68.581886 
	C419.859100,72.524330 413.898590,76.173149 407.037689,72.815865 
	C398.360748,68.569954 389.419830,65.085960 380.392059,61.753246 
	C374.589355,59.611107 372.853363,54.591537 371.749512,49.280605 
	C370.807892,44.750412 370.373535,40.116474 369.489807,35.572186 
	C367.996613,27.893906 367.249451,27.371054 359.214783,27.353420 
	C356.882233,27.348301 354.542664,27.469114 352.218536,27.329079 
	C347.215485,27.027626 345.051117,29.625135 344.357025,34.290058 
	C343.505554,40.012566 342.351227,45.690022 341.216278,52.194912 
z"/>
<path fill="#000000" opacity="1.000000" stroke="none" 
	d="
M0.999995,296.468658 
	C1.612191,295.028870 2.387164,294.123749 2.811906,293.076599 
	C8.214114,279.758026 19.070862,274.021698 32.399158,271.709900 
	C36.634186,270.975342 40.867413,270.199982 45.129143,269.662872 
	C47.194553,269.402557 47.917770,268.101074 48.513943,266.497894 
	C49.729710,263.228516 50.284458,259.491394 52.249424,256.767944 
	C56.586857,250.756256 55.076042,245.854004 50.798542,240.851944 
	C49.188919,238.969666 47.925423,236.795227 46.447842,234.795578 
	C36.182026,220.902359 36.818039,201.151962 48.585011,188.415207 
	C56.000767,180.388260 63.273720,172.018814 72.952278,166.494812 
	C84.972351,159.634399 97.019264,160.327927 108.914688,166.980728 
	C109.635254,167.383713 110.219429,168.027863 110.934654,168.443481 
	C116.238777,171.525940 120.670174,177.743988 126.437996,177.825836 
	C132.106476,177.906296 137.820633,173.754379 143.544220,171.535782 
	C145.444199,170.799316 146.444153,169.602814 146.804001,167.561172 
	C147.636948,162.835068 149.003174,158.180603 149.533188,153.427948 
	C150.726669,142.725906 158.210526,139.578812 167.773056,140.803787 
	C174.048126,141.607605 178.575134,149.896301 177.198517,157.845871 
	C175.758636,166.160843 173.845322,174.397598 172.546097,182.731995 
	C171.448883,189.770233 167.216309,193.496948 160.794022,195.262650 
	C152.118439,197.647858 143.715866,200.766830 136.051010,205.465103 
	C128.202454,210.275970 120.930496,210.384720 113.498886,204.651581 
	C107.854385,200.297134 101.969093,196.242813 96.066650,192.238144 
	C90.357025,188.364304 88.383797,188.643799 83.539963,193.461853 
	C79.050728,197.927170 74.695221,202.533157 70.083519,206.867233 
	C66.292702,210.429871 66.522896,214.110931 69.185532,217.995148 
	C73.782463,224.701096 78.478294,231.339371 83.143715,237.998260 
	C86.919441,243.387329 87.419441,249.071777 84.440178,254.919006 
	C79.302452,265.002563 74.713615,275.302368 71.452553,286.162323 
	C69.104424,293.981995 62.323765,295.031036 55.764534,296.222137 
	C49.092838,297.433624 42.383678,298.449799 35.674530,299.440460 
	C30.796953,300.160675 28.291065,303.344849 27.756046,307.767670 
	C26.896658,314.872040 26.904770,322.076447 27.749147,329.179901 
	C28.253050,333.419006 30.631863,336.191376 35.487411,336.907898 
	C43.819340,338.137299 52.033798,340.140717 60.337372,341.591400 
	C67.009544,342.757080 70.844421,346.435486 72.458641,353.044922 
	C74.796875,362.618805 78.808388,371.612305 83.706772,380.110168 
	C87.752548,387.128906 86.787033,393.389862 82.428459,399.631592 
	C78.060593,405.886627 73.751778,412.185242 69.263718,418.353149 
	C66.307869,422.415344 66.751358,426.213593 69.977196,429.625977 
	C74.666847,434.586853 79.522209,439.402191 84.491310,444.083862 
	C87.752991,447.156860 91.377167,447.692383 95.323685,444.861755 
	C102.199120,439.930328 109.192787,435.162811 116.166817,430.370117 
	C121.120789,426.965729 126.258713,426.617798 131.681534,429.380981 
	C141.748337,434.510345 151.911209,439.361053 162.977478,442.134552 
	C168.480392,443.513733 171.450089,447.627045 172.368729,453.245148 
	C173.676819,461.244873 175.055054,469.233368 176.449341,477.218658 
	C177.246475,481.783905 179.139023,485.595306 184.342880,486.114014 
	C192.106934,486.887939 199.884033,487.336731 207.640121,485.763245 
	C211.835083,484.912231 213.831451,482.265137 214.505432,478.272217 
	C215.883591,470.107666 217.323471,461.953369 218.667297,453.783234 
	C219.584076,448.209259 222.568893,444.202393 227.900513,442.467072 
	C238.509521,439.014038 248.840286,434.999237 258.665314,429.649017 
	C264.985870,426.207123 271.147919,427.196167 276.940277,431.327393 
	C283.150909,435.756958 289.396423,440.138977 295.678040,444.467194 
	C300.554749,447.827423 302.909637,447.672150 307.097473,443.623474 
	C312.127625,438.760345 317.038055,433.773529 322.010620,428.850616 
	C324.564301,426.322418 325.344391,423.613403 323.149078,420.413147 
	C318.083679,413.029114 313.132721,405.565826 308.010956,398.221436 
	C303.794739,392.175568 304.221008,386.107819 307.671326,380.027069 
	C312.456268,371.594086 316.013885,362.674805 318.657288,353.368927 
	C320.489014,346.920380 324.232910,342.665436 331.230896,341.536438 
	C340.048340,340.113953 348.778717,338.142029 357.604919,336.786530 
	C366.231110,335.461670 372.527954,340.636292 373.863190,349.620972 
	C374.844299,356.222504 369.347687,362.976868 361.877258,364.360962 
	C358.462830,364.993561 355.041412,366.220947 351.640900,366.161713 
	C345.039764,366.046600 342.229889,369.636414 340.777252,375.349457 
	C340.251007,377.419250 339.596375,379.655396 338.331024,381.301056 
	C334.495117,386.289948 336.283752,390.178925 339.665924,394.547211 
	C344.626648,400.954407 349.512299,407.501648 351.340088,415.727356 
	C353.937531,427.417053 351.436615,437.845673 343.512482,446.747162 
	C335.245544,456.033661 327.382477,465.984283 315.800476,471.413940 
	C303.533417,477.164825 291.527252,475.409973 280.266296,468.301025 
	C275.362061,465.204987 271.093842,459.907867 265.875061,458.837952 
	C260.608124,457.758148 255.371780,462.898895 249.839722,464.540710 
	C246.311188,465.587921 244.770157,467.363098 243.988846,471.345978 
	C242.312912,479.889557 241.849838,488.805542 237.290848,496.687469 
	C234.110977,502.185120 230.230576,506.688660 224.363785,509.321716 
	C222.555252,510.133392 220.657028,510.834686 219.153809,512.706543 
	C203.979111,513.000000 188.958206,513.000000 173.252350,512.744446 
	C171.426193,511.817230 170.327469,511.056763 169.137100,510.488007 
	C159.757675,506.006592 153.649841,498.738342 150.680939,488.823669 
	C149.111526,483.582672 148.340164,478.176117 147.635452,472.765411 
	C147.146896,469.014496 146.268723,465.957306 141.784302,464.719208 
	C137.195312,463.452240 132.863113,461.212830 128.480179,459.260620 
	C126.434715,458.349579 124.824303,458.470764 122.965027,459.852386 
	C118.845497,462.913666 114.453941,465.609009 110.335854,468.672058 
	C97.982620,477.860504 74.760017,476.440674 64.822395,464.088959 
	C60.569492,458.802917 55.689342,453.821838 50.356201,449.644348 
	C37.470753,439.551178 36.186230,416.285645 45.118698,403.718048 
	C47.326916,400.611206 49.296810,397.294800 51.800446,394.447723 
	C55.249702,390.525238 55.330837,386.819733 53.639847,381.887207 
	C50.238514,371.965576 45.557030,365.660706 33.564411,364.847229 
	C17.116106,363.731506 5.559073,354.588745 1.000000,338.000000 
	C1.000000,324.312439 1.000000,310.624878 0.999995,296.468658 
z"/>
<path fill="#000000" opacity="1.000000" stroke="none" 
	d="
M224.667664,401.395386 
	C190.100357,412.765503 153.059586,403.565033 129.155457,376.194489 
	C117.035149,362.316589 110.379898,345.804901 108.463585,327.077332 
	C104.442886,287.784058 126.439400,252.355270 160.753586,237.619400 
	C171.808533,232.871948 183.473373,230.360275 195.628265,230.639938 
	C203.671600,230.825027 209.237091,236.176437 209.343552,243.974472 
	C209.453323,252.015396 203.969452,258.227356 196.034927,258.282166 
	C180.167419,258.391815 166.324844,263.984253 154.854858,274.469940 
	C144.841766,283.623749 138.571091,295.363068 136.383255,308.974121 
	C133.806366,325.005493 137.513107,339.634186 146.914902,352.716858 
	C156.739777,366.388245 169.972244,374.879547 186.729095,377.633972 
	C217.003738,382.610413 246.861511,361.938812 254.052505,331.593842 
	C255.080383,327.256256 255.684357,322.827881 255.719604,318.296112 
	C255.785507,309.823883 261.575409,304.516479 270.124359,304.664001 
	C277.882812,304.797821 283.392914,310.403809 283.319000,318.480988 
	C283.103027,342.092010 275.010223,362.477356 258.591309,379.651001 
	C249.066345,389.613739 237.772598,396.523285 224.667664,401.395386 
z"/>
<path fill="#000000" opacity="1.000000" stroke="none" 
	d="
M308.334991,197.583130 
	C298.779419,185.828995 293.830627,172.524689 293.770142,157.882477 
	C293.638489,126.025200 315.160492,99.153107 347.141113,95.012352 
	C376.815704,91.170174 401.262665,102.316734 413.892792,130.360092 
	C430.809082,167.920288 411.103821,210.130615 369.407928,218.890198 
	C345.614319,223.888824 324.913361,216.252701 308.334991,197.583130 
M386.092651,176.563858 
	C393.505188,163.711670 394.045715,151.012894 386.011078,138.052368 
	C378.927979,126.626648 362.189819,119.662331 349.178101,122.864426 
	C331.840607,127.131042 319.420532,143.887024 322.317078,162.373840 
	C325.739075,184.214539 349.541534,198.601685 370.329590,189.374756 
	C376.550812,186.613419 381.493896,182.410324 386.092651,176.563858 
z"/>
</svg>