<svg width="16" height="16" viewBox="0 0 16 16" fill="none" xmlns="http://www.w3.org/2000/svg">
<g clip-path="url(#clip0_5508_3376)">
<path d="M8.30463 4.18213V8.00031L11.3482 9.9094" stroke="#A4A4A4" stroke-width="2" stroke-linecap="round" stroke-linejoin="round"/>
<path d="M4.04357 6.091H1V2.90918" stroke="#A4A4A4" stroke-width="2" stroke-linecap="round" stroke-linejoin="round"/>
<path d="M3.70877 13.0912C4.66595 14.0354 5.86807 14.6639 7.16492 14.8979C8.46177 15.132 9.79586 14.9614 11.0005 14.4074C12.2051 13.8533 13.2268 12.9405 13.938 11.7829C14.6493 10.6253 15.0184 9.2742 14.9993 7.89853C14.9802 6.52285 14.5738 5.18356 13.8308 4.04798C13.0878 2.9124 12.0412 2.0309 10.8217 1.51362C9.6022 0.996331 8.26394 0.866202 6.97413 1.13949C5.68431 1.41277 4.50012 2.07735 3.56953 3.05019C2.67396 3.99837 1.93438 4.89246 1 6.09121" stroke="#A4A4A4" stroke-width="2" stroke-linecap="round" stroke-linejoin="round"/>
</g>
<defs>
<clipPath id="clip0_5508_3376">
<rect width="16" height="16" fill="white"/>
</clipPath>
</defs>
</svg>
