<svg xmlns="http://www.w3.org/2000/svg" width="16.2" height="16.201" viewBox="0 0 16.2 16.201">
  <path id="type" d="M15.994,7.009l-.372-4.842A1.936,1.936,0,0,0,13.83.376L8.988,0A1.893,1.893,0,0,0,7.463.568L.548,7.483a1.881,1.881,0,0,0,0,2.654L5.86,15.449a1.879,1.879,0,0,0,2.654,0l6.915-6.915a1.893,1.893,0,0,0,.564-1.525Zm-1.271.818L7.807,14.742a.878.878,0,0,1-1.24,0L1.255,9.43a.881.881,0,0,1,0-1.24L8.17,1.275A.89.89,0,0,1,8.826,1q.042,0,.086,0l4.842.372a.941.941,0,0,1,.871.871L15,7.086A.9.9,0,0,1,14.722,7.827Zm-3.012-5.44a1.9,1.9,0,1,0,1.9,1.9,1.9,1.9,0,0,0-1.9-1.9Zm0,2.8a.9.9,0,1,1,.9-.9A.9.9,0,0,1,11.711,5.186Z" transform="translate(0.1 0.103)" fill="#707070" stroke="#707070" stroke-width="0.2"/>
</svg>
