<svg xmlns="http://www.w3.org/2000/svg" width="26" height="26" viewBox="0 0 26 26">
  <g id="unknown" transform="translate(1 1)">
    <path id="Path_1" data-name="Path 1" d="M27,15A12,12,0,1,1,15,3,12,12,0,0,1,27,15Z" transform="translate(-3 -3)" fill="none" stroke="#d9a61a" stroke-linecap="round" stroke-linejoin="round" stroke-width="2"/>
    <path id="Path_14" data-name="Path 14" d="M3.925-2.3a.623.623,0,0,1-.492-.215A.866.866,0,0,1,3.245-3.1,3.539,3.539,0,0,1,3.6-4.768,8.51,8.51,0,0,1,4.641-6.254a8.4,8.4,0,0,0,.787-1.074,1.882,1.882,0,0,0,.251-.966,1.138,1.138,0,0,0-.438-.94,1.86,1.86,0,0,0-1.19-.349,2.871,2.871,0,0,0-1.235.277,11.363,11.363,0,0,0-1.378.8A1.612,1.612,0,0,1,.7-8.258a.662.662,0,0,1-.528-.277,1.009,1.009,0,0,1-.224-.653,1,1,0,0,1,.43-.841,5.608,5.608,0,0,1,1.772-1.011,6.043,6.043,0,0,1,2.058-.367,4.758,4.758,0,0,1,1.942.376A3.15,3.15,0,0,1,7.478-9.994a2.546,2.546,0,0,1,.474,1.521A2.907,2.907,0,0,1,7.5-6.853,9.943,9.943,0,0,1,6.2-5.305,11.739,11.739,0,0,0,5.1-4.043a2.545,2.545,0,0,0-.456,1.154.708.708,0,0,1-.242.438A.729.729,0,0,1,3.925-2.3ZM3.961,1.46a1.27,1.27,0,0,1-.949-.385A1.316,1.316,0,0,1,2.637.118,1.316,1.316,0,0,1,3.012-.84a1.27,1.27,0,0,1,.949-.385,1.27,1.27,0,0,1,.949.385,1.316,1.316,0,0,1,.376.957,1.3,1.3,0,0,1-.385.957A1.278,1.278,0,0,1,3.961,1.46Z" transform="translate(8.048 16.974)" fill="#d9a61a"/>
  </g>
</svg>
