<svg xmlns="http://www.w3.org/2000/svg" width="17" height="17.505" viewBox="0 0 17 17.505">
  <path id="note" d="M13.8-1.332H2.2A2.3,2.3,0,0,0,0,1.059V8.775a2.3,2.3,0,0,0,2.192,2.391v3.5l4.63-3.5H13.8A2.3,2.3,0,0,0,16,8.775V1.059a2.3,2.3,0,0,0-2.2-2.391ZM15.063,8.775A1.322,1.322,0,0,1,13.8,10.147H6.528l-3.4,2.57v-2.57H2.2A1.322,1.322,0,0,1,.938,8.775V1.059A1.322,1.322,0,0,1,2.2-.313H13.8a1.322,1.322,0,0,1,1.262,1.372Zm0,0" transform="translate(0.499 1.832)" fill="#d9a61a" stroke="#d9a61a" stroke-width="1"/>
</svg>
